<svg width="113" height="113" viewBox="0 0 113 113" fill="none" xmlns="http://www.w3.org/2000/svg">
<path d="M17.6562 75.2679V81.2187C17.6562 91.6199 26.0882 100.052 36.4896 100.052H76.5104C86.9116 100.052 95.3438 91.6199 95.3438 81.2187V75.2679" stroke="#BC0000" stroke-width="1.5" stroke-linecap="round"/>
<path d="M100.052 55.3229C100.052 50.1221 95.8363 45.9062 90.6354 45.9062H22.3646C17.1639 45.9062 12.9479 50.1221 12.9479 55.3229V64.7396C12.9479 72.5408 19.2719 78.8646 27.0729 78.8646C32.1887 78.8646 36.6692 76.1451 39.1477 72.0728C42.0073 78.8312 48.6997 83.5729 56.5 83.5729C64.3003 83.5729 70.9927 78.8312 73.8526 72.0728C76.3306 76.1451 80.8115 78.8646 85.9271 78.8646C93.7283 78.8646 100.052 72.5408 100.052 64.7396V55.3229Z" stroke="#BC0000" stroke-width="1.5" stroke-linecap="round"/>
<path d="M84.75 31.7812V45.9063" stroke="#BC0000" stroke-width="1.5" stroke-linecap="round"/>
<path d="M77.3461 22.838C76.4911 27.3258 80.0454 31.733 84.6685 31.7809C89.2366 31.8282 92.9453 27.5502 92.1746 22.9915C91.497 18.9878 87.3029 15.8075 84.7458 12.9479C82.2235 15.7724 78.0929 18.9177 77.3461 22.838Z" stroke="#BC0000" stroke-width="1.5" stroke-linejoin="round"/>
<path d="M56.5 31.7812V45.9063" stroke="#BC0000" stroke-width="1.5" stroke-linecap="round"/>
<path d="M49.0961 22.838C48.2411 27.3258 51.7954 31.733 56.4185 31.7809C60.9866 31.8282 64.6953 27.5502 63.9246 22.9915C63.247 18.9878 59.0529 15.8075 56.4958 12.9479C53.9735 15.7724 49.8429 18.9177 49.0961 22.838Z" stroke="#BC0000" stroke-width="1.5" stroke-linejoin="round"/>
<path d="M28.25 31.7812V45.9063" stroke="#BC0000" stroke-width="1.5" stroke-linecap="round"/>
<path d="M20.8461 22.838C19.9911 27.3258 23.5453 31.733 28.1685 31.7809C32.7367 31.8282 36.4454 27.5502 35.6744 22.9915C34.9973 18.9878 30.8028 15.8075 28.2456 12.9479C25.7237 15.7724 21.5929 18.9177 20.8461 22.838Z" stroke="#BC0000" stroke-width="1.5" stroke-linejoin="round"/>
</svg>
