<svg xmlns="http://www.w3.org/2000/svg" viewBox="0 0 48 48"><defs><style>.cls-1{fill:#ffdddf;}.cls-2{fill:#f16d8f;}.cls-3{fill:#f280a0;}.cls-4{fill:#f89bae;}.cls-5{fill:#ffbafe;}.cls-6{fill:#bcc0ff;}.cls-7{fill:#98d7de;}.cls-8{fill:#fac8fc;}.cls-9{fill:#fcf1ed;}.cls-10{fill:#81c8d9;}.cls-11{fill:#a499d6;}.cls-12{fill:#faaafe;}.cls-13{fill:#f6fafd;}.cls-14{fill:#7d649c;}</style></defs><title>16-cart</title><g id="_16-cart" data-name="16-cart"><polygon class="cls-1" points="1 21 3 37 35.864 37 39.5 21 1 21"/><path class="cls-2" d="M31,1h0a2,2,0,0,1,2,2V5a0,0,0,0,1,0,0H29a0,0,0,0,1,0,0V3A2,2,0,0,1,31,1Z"/><path class="cls-3" d="M17.192,19.353c-.565.571-9.612,4-14.7-1.142a4.685,4.685,0,0,1,0-6.852c1.7-1.713,3.958-1.713,6.219-.571C7.58,8.5,7.58,6.22,9.277,4.506a4.579,4.579,0,0,1,6.785,0C21.15,9.646,18.323,18.211,17.192,19.353Z"/><path class="cls-4" d="M33,3s0-2,3-2h2a3.942,3.942,0,0,1-3.636,3.956C33.954,4.984,33.5,5,33,5Z"/><path class="cls-4" d="M29,3s0-2-3-2H24a3.942,3.942,0,0,0,3.636,3.956C28.046,4.984,28.5,5,29,5Z"/><polygon class="cls-5" points="18 11 20 11 20 21 16 21 16 11 18 11"/><polygon class="cls-6" points="16 11 16 21 11 21 11 11 14 11 16 11"/><polygon class="cls-6" points="25 11 25 21 22.5 21 20 21 20 11 22 11 25 11"/><polygon class="cls-7" points="29 5 29 21 25 21 25 11 25 5 29 5"/><rect class="cls-7" x="33" y="5" width="4" height="16"/><rect class="cls-3" x="29" y="5" width="4" height="16"/><circle class="cls-7" cx="7" cy="45" r="2"/><circle class="cls-7" cx="33" cy="45" r="2"/><path class="cls-8" d="M18,9c0-1.66-1.79-2-4-2l1,2-1,2h4"/><path class="cls-8" d="M18.32,7.98C18.93,7.19,20.35,7,22,7L21,9l1,2H18V9a1.547,1.547,0,0,1,.32-1.01"/><polygon class="cls-9" points="35.864 37 39.5 21 6 21 22 37 35.864 37"/><rect class="cls-10" x="25" y="17" width="4" height="4"/><rect class="cls-10" x="33" y="17" width="4" height="4"/><rect class="cls-2" x="29" y="17" width="4" height="4"/><rect class="cls-11" x="11" y="17" width="5" height="4"/><rect class="cls-12" x="16" y="17" width="4" height="4"/><path class="cls-3" d="M22.5,24c1.75,0,3.5,1,3.5,3,0,4.5-5.83,7-7,7-.58,0-7-2.5-7-7,0-2,1.75-3,3.5-3A3.6,3.6,0,0,1,19,26.5,3.6,3.6,0,0,1,22.5,24Z"/><path class="cls-2" d="M15,27a2.824,2.824,0,0,1,1.963-2.713A3.763,3.763,0,0,0,15.5,24c-1.75,0-3.5,1-3.5,3,0,4.5,6.42,7,7,7a5.072,5.072,0,0,0,1.625-.478C18.569,32.6,15,30.356,15,27Z"/><path class="cls-4" d="M22.5,24a3.491,3.491,0,0,0-2.577,1.03A3.058,3.058,0,0,1,23,28c0,2.8-2.252,4.82-4.238,5.952A1.167,1.167,0,0,0,19,34c1.17,0,7-2.5,7-7C26,25,24.25,24,22.5,24Z"/><ellipse class="cls-13" cx="24" cy="27" rx="0.825" ry="1.148" transform="translate(-12.063 24.891) rotate(-45.02)"/><ellipse class="cls-13" cx="23.746" cy="28.5" rx="0.413" ry="0.574" transform="translate(-13.199 25.151) rotate(-45.02)"/><path class="cls-2" d="M11,20.957V11H9v9.959A15.161,15.161,0,0,0,11,20.957Z"/><path class="cls-2" d="M14.085,7.169A10.771,10.771,0,0,0,12,7l1,2-1,2h2l1-2Z"/><rect class="cls-13" x="34" y="8" width="2" height="2"/><rect class="cls-13" x="34" y="11" width="2" height="2"/><rect class="cls-13" x="9" y="34" width="2" height="2"/><rect class="cls-13" x="6" y="34" width="2" height="2"/><polygon class="cls-11" points="23 11 23 17 20 17 20 21 25 21 25 17 25 11 23 11"/><circle class="cls-10" cx="33" cy="45" r="1"/><circle class="cls-10" cx="7" cy="45" r="1"/><path class="cls-14" d="M35,42H3V40H34.2L42.023,4.783A1,1,0,0,1,43,4h4V6H43.8L35.977,41.217A1,1,0,0,1,35,42Z"/></g></svg>