<svg width="137" height="137" viewBox="0 0 137 137" fill="none" xmlns="http://www.w3.org/2000/svg">
<path d="M49.9479 94.1875C49.9479 100.493 44.8365 105.604 38.5312 105.604C32.226 105.604 27.1146 100.493 27.1146 94.1875" stroke="#BC0000" stroke-width="1.5" stroke-linecap="round"/>
<path d="M102.75 105.604C109.055 105.604 114.167 100.493 114.167 94.1875C114.167 87.8823 109.055 82.7708 102.75 82.7708C96.4447 82.7708 91.3333 87.8823 91.3333 94.1875C91.3333 100.493 96.4447 105.604 102.75 105.604Z" stroke="#BC0000" stroke-width="1.5" stroke-linecap="round"/>
<path d="M17.125 85.625C17.125 73.0147 27.3478 62.7917 39.9583 62.7917H54.2292C57.3819 62.7917 59.9375 65.3473 59.9375 68.5V91.3333H22.8333C19.6807 91.3333 17.125 88.7777 17.125 85.625Z" stroke="#BC0000" stroke-width="1.5" stroke-linecap="round"/>
<path d="M38.5312 48.5208H55.6563" stroke="#BC0000" stroke-width="1.5" stroke-linecap="round"/>
<path d="M102.75 68.5C109.329 68.5 115.331 70.9734 119.875 75.0406M102.75 68.5C89.5278 68.5 78.6391 78.4896 77.2195 91.3333H59.9375M102.75 68.5L95.2087 35.8206C94.6111 33.2306 92.3043 31.3958 89.6465 31.3958H82.7708" stroke="#BC0000" stroke-width="1.5" stroke-linecap="round"/>
</svg>
