<svg width="117" height="117" viewBox="0 0 117 117" fill="none" xmlns="http://www.w3.org/2000/svg">
<path d="M52.3955 100.748C47.4963 103.015 41.6764 101.188 38.9518 96.5274L37.7458 94.4648C36.2444 91.8967 33.7221 90.0876 30.8082 89.4894L28.1612 88.9463C22.8402 87.8538 19.2367 82.876 19.8607 77.4798L20.1042 75.3738C20.4395 72.4752 19.5505 69.5677 17.6514 67.352L15.9285 65.3421C12.5541 61.4055 12.5669 55.5926 15.9588 51.6706L17.6179 49.7523C19.5374 47.5328 20.4382 44.6101 20.101 41.6952L19.8607 39.6169C19.2367 34.2209 22.8402 29.243 28.1612 28.1506L30.7876 27.6114C33.7135 27.0107 36.2439 25.1897 37.7428 22.6061L38.9632 20.5025C41.679 15.8214 47.5131 13.9791 52.4248 16.2516L54.1135 17.0331C56.9044 18.3243 60.1214 18.3243 62.9124 17.0331L64.6508 16.2287C69.5414 13.9658 75.3514 15.7823 78.0819 20.4282L79.3923 22.6575C80.8933 25.2105 83.4039 27.0092 86.3041 27.6085L88.8796 28.1408C94.1943 29.2391 97.7901 34.2136 97.1666 39.6043L96.9248 41.6952C96.5879 44.6101 97.4888 47.5328 99.4081 49.7523L101.067 51.6706C104.459 55.5926 104.472 61.4055 101.098 65.3421L99.3744 67.352C97.4756 69.5677 96.5864 72.4752 96.9218 75.3738L97.1666 77.4925C97.7901 82.8833 94.1943 87.8577 88.8796 88.9561L86.2836 89.4923C83.3957 90.0895 80.8928 91.8757 79.3899 94.4132L78.0931 96.602C75.3539 101.227 69.5585 103.029 64.6796 100.771L62.9124 99.9536C60.1214 98.6622 56.9044 98.6622 54.1135 99.9536L52.3955 100.748Z" stroke="#BC0000" stroke-width="1.5" stroke-linecap="round"/>
<path d="M39 58.6462L52.7962 72.15L78 44.85" stroke="#BC0000" stroke-width="1.5" stroke-linecap="round" stroke-linejoin="round"/>
</svg>
